<svg xmlns="http://www.w3.org/2000/svg" width="24.75" height="29.25" viewBox="0 0 24.75 29.25"><path d="M18.07,8.471a10.159,10.159,0,0,1,1.681.315,7.167,7.167,0,0,1,5.462,7.021v8.972l.655.658.548.55H9.584l.548-.55.655-.658V15.806a7.166,7.166,0,0,1,5.462-7.021A12.459,12.459,0,0,1,17.93,8.47m.07-5.1a2.149,2.149,0,0,0-2.184,2.194V6.593a9.479,9.479,0,0,0-7.279,9.214v8.044L5.625,26.775v1.463h24.75V26.775L27.463,23.85V15.806a9.479,9.479,0,0,0-7.279-9.214V5.569A2.15,2.15,0,0,0,18,3.375ZM20.912,29.7H15.089a2.912,2.912,0,1,0,5.824,0Z" transform="translate(-5.625 -3.375)" fill="#f66238"/></svg>