<svg xmlns="http://www.w3.org/2000/svg" width="29.243" height="29.247" viewBox="0 0 29.243 29.247"><g transform="translate(-3.375 -3.375)"><path d="M29.946,11.981H14.365a2.682,2.682,0,0,0-2.679,2.679V25.509a2.676,2.676,0,0,0,2.679,2.672h8.916a.765.765,0,0,1,.534.225l4.43,4.085c.246.239.654.141.654-.2V28.729c0-.422.267-.555.689-.555h.07a2.926,2.926,0,0,0,2.96-2.672V14.66A2.667,2.667,0,0,0,29.946,11.981Z" fill="#f66238"/><path d="M12.263,10.259H24.736V5.667a2.292,2.292,0,0,0-2.292-2.292H5.667A2.293,2.293,0,0,0,3.375,5.667V17.283a2.292,2.292,0,0,0,2.292,2.292h4.3V12.551a2.3,2.3,0,0,1,2.3-2.292Z" fill="#f66238"/></g></svg>